<mxfile host="Electron" agent="Mozilla/5.0 (Windows NT 10.0; Win64; x64) AppleWebKit/537.36 (KHTML, like Gecko) draw.io/25.0.2 Chrome/128.0.6613.186 Electron/32.2.5 Safari/537.36" version="25.0.2">
  <diagram name="Page-1" id="wNcMuca9kNsyZNPi4Zpo">
    <mxGraphModel dx="1290" dy="621" grid="1" gridSize="10" guides="1" tooltips="1" connect="1" arrows="1" fold="1" page="1" pageScale="1" pageWidth="850" pageHeight="1100" math="0" shadow="0">
      <root>
        <mxCell id="0" />
        <mxCell id="1" parent="0" />
        <mxCell id="67M6qlhTAgJq65YPq9nf-1" value="Start SCD Type 2 Process" style="whiteSpace=wrap;strokeWidth=2;" vertex="1" parent="1">
          <mxGeometry x="378" y="20" width="235" height="48" as="geometry" />
        </mxCell>
        <mxCell id="67M6qlhTAgJq65YPq9nf-2" value="Load and Cache New Data" style="whiteSpace=wrap;strokeWidth=2;" vertex="1" parent="1">
          <mxGeometry x="372" y="118" width="247" height="48" as="geometry" />
        </mxCell>
        <mxCell id="67M6qlhTAgJq65YPq9nf-3" value="Process Each Dimension" style="rhombus;strokeWidth=2;whiteSpace=wrap;" vertex="1" parent="1">
          <mxGeometry x="386" y="217" width="218" height="218" as="geometry" />
        </mxCell>
        <mxCell id="67M6qlhTAgJq65YPq9nf-4" value="Filter New Data for Current Dimension" style="whiteSpace=wrap;strokeWidth=2;" vertex="1" parent="1">
          <mxGeometry x="284" y="507" width="257" height="66" as="geometry" />
        </mxCell>
        <mxCell id="67M6qlhTAgJq65YPq9nf-5" value="Dimension Exists?" style="rhombus;strokeWidth=2;whiteSpace=wrap;" vertex="1" parent="1">
          <mxGeometry x="326" y="623" width="174" height="174" as="geometry" />
        </mxCell>
        <mxCell id="67M6qlhTAgJq65YPq9nf-6" value="Create New Dimension with SCD Type 2 Structure" style="whiteSpace=wrap;strokeWidth=2;" vertex="1" parent="1">
          <mxGeometry x="20" y="1684" width="258" height="66" as="geometry" />
        </mxCell>
        <mxCell id="67M6qlhTAgJq65YPq9nf-7" value="Write to Output Path" style="whiteSpace=wrap;strokeWidth=2;" vertex="1" parent="1">
          <mxGeometry x="315" y="1800" width="210" height="48" as="geometry" />
        </mxCell>
        <mxCell id="67M6qlhTAgJq65YPq9nf-8" value="Join New Data with Current Records" style="whiteSpace=wrap;strokeWidth=2;" vertex="1" parent="1">
          <mxGeometry x="419" y="869" width="259" height="66" as="geometry" />
        </mxCell>
        <mxCell id="67M6qlhTAgJq65YPq9nf-9" value="Identify Changed and New Records" style="whiteSpace=wrap;strokeWidth=2;" vertex="1" parent="1">
          <mxGeometry x="424" y="985" width="249" height="66" as="geometry" />
        </mxCell>
        <mxCell id="67M6qlhTAgJq65YPq9nf-10" value="Changed Records?" style="rhombus;strokeWidth=2;whiteSpace=wrap;" vertex="1" parent="1">
          <mxGeometry x="461" y="1101" width="176" height="176" as="geometry" />
        </mxCell>
        <mxCell id="67M6qlhTAgJq65YPq9nf-11" value="Expire Changed Records &amp; Create New Versions" style="whiteSpace=wrap;strokeWidth=2;" vertex="1" parent="1">
          <mxGeometry x="237" y="1350" width="259" height="66" as="geometry" />
        </mxCell>
        <mxCell id="67M6qlhTAgJq65YPq9nf-12" value="Keep Existing Records" style="whiteSpace=wrap;strokeWidth=2;" vertex="1" parent="1">
          <mxGeometry x="585" y="1358" width="216" height="48" as="geometry" />
        </mxCell>
        <mxCell id="67M6qlhTAgJq65YPq9nf-13" value="New Records?" style="rhombus;strokeWidth=2;whiteSpace=wrap;" vertex="1" parent="1">
          <mxGeometry x="476" y="1466" width="146" height="146" as="geometry" />
        </mxCell>
        <mxCell id="67M6qlhTAgJq65YPq9nf-14" value="Add New Records" style="whiteSpace=wrap;strokeWidth=2;" vertex="1" parent="1">
          <mxGeometry x="328" y="1693" width="184" height="48" as="geometry" />
        </mxCell>
        <mxCell id="67M6qlhTAgJq65YPq9nf-15" value="Use Updated Dimension" style="whiteSpace=wrap;strokeWidth=2;" vertex="1" parent="1">
          <mxGeometry x="574" y="1693" width="229" height="48" as="geometry" />
        </mxCell>
        <mxCell id="67M6qlhTAgJq65YPq9nf-16" value="More Dimensions?" style="rhombus;strokeWidth=2;whiteSpace=wrap;" vertex="1" parent="1">
          <mxGeometry x="543" y="1898" width="175" height="175" as="geometry" />
        </mxCell>
        <mxCell id="67M6qlhTAgJq65YPq9nf-17" value="End Process" style="whiteSpace=wrap;strokeWidth=2;" vertex="1" parent="1">
          <mxGeometry x="559" y="2146" width="144" height="48" as="geometry" />
        </mxCell>
        <mxCell id="67M6qlhTAgJq65YPq9nf-18" value="" style="curved=1;startArrow=none;endArrow=block;exitX=0.5;exitY=1.01;entryX=0.5;entryY=0.01;rounded=0;" edge="1" parent="1" source="67M6qlhTAgJq65YPq9nf-1" target="67M6qlhTAgJq65YPq9nf-2">
          <mxGeometry relative="1" as="geometry">
            <Array as="points" />
          </mxGeometry>
        </mxCell>
        <mxCell id="67M6qlhTAgJq65YPq9nf-19" value="" style="curved=1;startArrow=none;endArrow=block;exitX=0.5;exitY=1.02;entryX=0.5;entryY=0;rounded=0;" edge="1" parent="1" source="67M6qlhTAgJq65YPq9nf-2" target="67M6qlhTAgJq65YPq9nf-3">
          <mxGeometry relative="1" as="geometry">
            <Array as="points" />
          </mxGeometry>
        </mxCell>
        <mxCell id="67M6qlhTAgJq65YPq9nf-20" value="For Each Dimension" style="curved=1;startArrow=none;endArrow=block;exitX=0.22;exitY=1;entryX=0.5;entryY=0;rounded=0;" edge="1" parent="1" source="67M6qlhTAgJq65YPq9nf-3" target="67M6qlhTAgJq65YPq9nf-4">
          <mxGeometry relative="1" as="geometry">
            <Array as="points">
              <mxPoint x="413" y="471" />
            </Array>
          </mxGeometry>
        </mxCell>
        <mxCell id="67M6qlhTAgJq65YPq9nf-21" value="" style="curved=1;startArrow=none;endArrow=block;exitX=0.5;exitY=1;entryX=0.5;entryY=0;rounded=0;" edge="1" parent="1" source="67M6qlhTAgJq65YPq9nf-4" target="67M6qlhTAgJq65YPq9nf-5">
          <mxGeometry relative="1" as="geometry">
            <Array as="points" />
          </mxGeometry>
        </mxCell>
        <mxCell id="67M6qlhTAgJq65YPq9nf-22" value="No" style="curved=1;startArrow=none;endArrow=block;exitX=0;exitY=0.73;entryX=0.5;entryY=0;rounded=0;" edge="1" parent="1" source="67M6qlhTAgJq65YPq9nf-5" target="67M6qlhTAgJq65YPq9nf-6">
          <mxGeometry relative="1" as="geometry">
            <Array as="points">
              <mxPoint x="149" y="833" />
            </Array>
          </mxGeometry>
        </mxCell>
        <mxCell id="67M6qlhTAgJq65YPq9nf-23" value="" style="curved=1;startArrow=none;endArrow=block;exitX=0.5;exitY=1;entryX=0;entryY=0.11;rounded=0;" edge="1" parent="1" source="67M6qlhTAgJq65YPq9nf-6" target="67M6qlhTAgJq65YPq9nf-7">
          <mxGeometry relative="1" as="geometry">
            <Array as="points">
              <mxPoint x="149" y="1775" />
            </Array>
          </mxGeometry>
        </mxCell>
        <mxCell id="67M6qlhTAgJq65YPq9nf-24" value="Yes" style="curved=1;startArrow=none;endArrow=block;exitX=1;exitY=0.95;entryX=0.5;entryY=0;rounded=0;" edge="1" parent="1" source="67M6qlhTAgJq65YPq9nf-5" target="67M6qlhTAgJq65YPq9nf-8">
          <mxGeometry relative="1" as="geometry">
            <Array as="points">
              <mxPoint x="549" y="833" />
            </Array>
          </mxGeometry>
        </mxCell>
        <mxCell id="67M6qlhTAgJq65YPq9nf-25" value="" style="curved=1;startArrow=none;endArrow=block;exitX=0.5;exitY=1;entryX=0.5;entryY=0;rounded=0;" edge="1" parent="1" source="67M6qlhTAgJq65YPq9nf-8" target="67M6qlhTAgJq65YPq9nf-9">
          <mxGeometry relative="1" as="geometry">
            <Array as="points" />
          </mxGeometry>
        </mxCell>
        <mxCell id="67M6qlhTAgJq65YPq9nf-26" value="" style="curved=1;startArrow=none;endArrow=block;exitX=0.5;exitY=1;entryX=0.5;entryY=0;rounded=0;" edge="1" parent="1" source="67M6qlhTAgJq65YPq9nf-9" target="67M6qlhTAgJq65YPq9nf-10">
          <mxGeometry relative="1" as="geometry">
            <Array as="points" />
          </mxGeometry>
        </mxCell>
        <mxCell id="67M6qlhTAgJq65YPq9nf-27" value="Yes" style="curved=1;startArrow=none;endArrow=block;exitX=0;exitY=0.84;entryX=0.5;entryY=-0.01;rounded=0;" edge="1" parent="1" source="67M6qlhTAgJq65YPq9nf-10" target="67M6qlhTAgJq65YPq9nf-11">
          <mxGeometry relative="1" as="geometry">
            <Array as="points">
              <mxPoint x="367" y="1313" />
            </Array>
          </mxGeometry>
        </mxCell>
        <mxCell id="67M6qlhTAgJq65YPq9nf-28" value="No" style="curved=1;startArrow=none;endArrow=block;exitX=1;exitY=0.93;entryX=0.5;entryY=0.01;rounded=0;" edge="1" parent="1" source="67M6qlhTAgJq65YPq9nf-10" target="67M6qlhTAgJq65YPq9nf-12">
          <mxGeometry relative="1" as="geometry">
            <Array as="points">
              <mxPoint x="692" y="1313" />
            </Array>
          </mxGeometry>
        </mxCell>
        <mxCell id="67M6qlhTAgJq65YPq9nf-29" value="" style="curved=1;startArrow=none;endArrow=block;exitX=0.5;exitY=0.99;entryX=0;entryY=0.23;rounded=0;" edge="1" parent="1" source="67M6qlhTAgJq65YPq9nf-11" target="67M6qlhTAgJq65YPq9nf-13">
          <mxGeometry relative="1" as="geometry">
            <Array as="points">
              <mxPoint x="367" y="1441" />
            </Array>
          </mxGeometry>
        </mxCell>
        <mxCell id="67M6qlhTAgJq65YPq9nf-30" value="" style="curved=1;startArrow=none;endArrow=block;exitX=0.5;exitY=1.02;entryX=1;entryY=0.16;rounded=0;" edge="1" parent="1" source="67M6qlhTAgJq65YPq9nf-12" target="67M6qlhTAgJq65YPq9nf-13">
          <mxGeometry relative="1" as="geometry">
            <Array as="points">
              <mxPoint x="692" y="1441" />
            </Array>
          </mxGeometry>
        </mxCell>
        <mxCell id="67M6qlhTAgJq65YPq9nf-31" value="Yes" style="curved=1;startArrow=none;endArrow=block;exitX=0;exitY=0.92;entryX=0.5;entryY=0;rounded=0;" edge="1" parent="1" source="67M6qlhTAgJq65YPq9nf-13" target="67M6qlhTAgJq65YPq9nf-14">
          <mxGeometry relative="1" as="geometry">
            <Array as="points">
              <mxPoint x="420" y="1648" />
            </Array>
          </mxGeometry>
        </mxCell>
        <mxCell id="67M6qlhTAgJq65YPq9nf-32" value="No" style="curved=1;startArrow=none;endArrow=block;exitX=1;exitY=0.89;entryX=0.5;entryY=0;rounded=0;" edge="1" parent="1" source="67M6qlhTAgJq65YPq9nf-13" target="67M6qlhTAgJq65YPq9nf-15">
          <mxGeometry relative="1" as="geometry">
            <Array as="points">
              <mxPoint x="689" y="1648" />
            </Array>
          </mxGeometry>
        </mxCell>
        <mxCell id="67M6qlhTAgJq65YPq9nf-33" value="" style="curved=1;startArrow=none;endArrow=block;exitX=0.5;exitY=1;entryX=0.5;entryY=0;rounded=0;" edge="1" parent="1" source="67M6qlhTAgJq65YPq9nf-14" target="67M6qlhTAgJq65YPq9nf-7">
          <mxGeometry relative="1" as="geometry">
            <Array as="points" />
          </mxGeometry>
        </mxCell>
        <mxCell id="67M6qlhTAgJq65YPq9nf-34" value="" style="curved=1;startArrow=none;endArrow=block;exitX=0.5;exitY=1;entryX=1;entryY=0.1;rounded=0;" edge="1" parent="1" source="67M6qlhTAgJq65YPq9nf-15" target="67M6qlhTAgJq65YPq9nf-7">
          <mxGeometry relative="1" as="geometry">
            <Array as="points">
              <mxPoint x="689" y="1775" />
            </Array>
          </mxGeometry>
        </mxCell>
        <mxCell id="67M6qlhTAgJq65YPq9nf-35" value="" style="curved=1;startArrow=none;endArrow=block;exitX=0.5;exitY=1.01;entryX=0;entryY=0.24;rounded=0;" edge="1" parent="1" source="67M6qlhTAgJq65YPq9nf-7" target="67M6qlhTAgJq65YPq9nf-16">
          <mxGeometry relative="1" as="geometry">
            <Array as="points">
              <mxPoint x="420" y="1873" />
            </Array>
          </mxGeometry>
        </mxCell>
        <mxCell id="67M6qlhTAgJq65YPq9nf-36" value="Yes" style="curved=1;startArrow=none;endArrow=block;exitX=1;exitY=0.24;entryX=1;entryY=0.71;rounded=0;" edge="1" parent="1" source="67M6qlhTAgJq65YPq9nf-16" target="67M6qlhTAgJq65YPq9nf-3">
          <mxGeometry relative="1" as="geometry">
            <Array as="points">
              <mxPoint x="846" y="1873" />
              <mxPoint x="846" y="471" />
            </Array>
          </mxGeometry>
        </mxCell>
        <mxCell id="67M6qlhTAgJq65YPq9nf-37" value="No" style="curved=1;startArrow=none;endArrow=block;exitX=0.5;exitY=1;entryX=0.5;entryY=0;rounded=0;" edge="1" parent="1" source="67M6qlhTAgJq65YPq9nf-16" target="67M6qlhTAgJq65YPq9nf-17">
          <mxGeometry relative="1" as="geometry">
            <Array as="points" />
          </mxGeometry>
        </mxCell>
      </root>
    </mxGraphModel>
  </diagram>
</mxfile>
